<svg xmlns="http://www.w3.org/2000/svg" xmlns:xlink="http://www.w3.org/1999/xlink" style="" version="1.1" xml:space="preserve" width="56.7" height="56.7"><rect id="backgroundrect" width="100%" height="100%" x="0" y="0" fill="none" stroke="none"/><g class="currentLayer" style=""><title>Layer 1</title><path d="M42.4,16.72097901701927 c-5.3,0 -9.3,3.5 -10.9,9 c-2.5,-3.9 -4.5,-8.3 -5.6,-12.1 h-5.6 v14.7 c0,2.9 -2.4,5.3 -5.3,5.3 c-2.9,0 -5.3,-2.4 -5.3,-5.3 V13.720979017019271 H4.3 v14.7 c0,6.1 4.9,11 10.9,11 c6,0 10.9,-4.9 10.9,-11 v-2.5 c1.1,2.2 2.5,4.6 4,6.7 l-3.5,16.3 h5.7 L34.7,37.02097901701927 c2.2,1.4 4.7,2.2 7.7,2.2 c6.1,0 11.1,-5 11.1,-11.4 C53.5,21.72097901701927 48.5,16.72097901701927 42.4,16.72097901701927 zM42.4,33.62097901701927 c-2.2,0 -4.5,-1 -6.3,-2.5 l0.6000000000000002,-2.2 v-0.1 c0.4,-2.4 1.7000000000000002,-6.4 5.8,-6.4 c3.1,0 5.6,2.5 5.6,5.6 C48,31.120979017019273 45.3,33.62097901701927 42.4,33.62097901701927 z" id="svg_1" class="selected" fill="#ffffff" fill-opacity="1"/></g></svg>